# AST/ASF file generated using VICON BodyLanguage
# -----------------------------------------------
:version 1.10
:name VICON
:units
  mass 1.0
  length 0.45
  angle deg
:documentation
   .ast/.asf automatically generated from VICON data using
   VICON BodyBuilder and BodyLanguage model FoxedUp or BRILLIANT.MOD
:root
   order TX TY TZ RX RY RZ
   axis XYZ
   position 0 0 0  
   orientation 0 0 0 
:bonedata
  begin
     id 1 
     name lhipjoint
     direction 0.624716 -0.669793 0.401383 
     length 2.38238 
     axis 0 0 0  XYZ
  end
  begin
     id 2 
     name lfemur
     direction 0.34202 -0.939693 0  
     length 6.4574  
     axis 0 0 20  XYZ
    dof rx ry rz
    limits (-160.0 20.0)
           (-70.0 70.0)
           (-60.0 70.0)
  end
  begin
     id 3 
     name ltibia
     direction 0.34202 -0.939693 0   
     length 7.68739   
     axis 0 0 20   XYZ
    dof rx
    limits (-10.0 170.0)
  end
  begin
     id 4 
     name lfoot
     direction 0.0681309 -0.187188 0.979959   
     length 2.46615   
     axis -90 7.62852e-016 20   XYZ
    dof rx rz
    limits (-45.0 90.0)
           (-70.0 20.0)
  end
  begin
     id 5 
     name ltoes
     direction 1.53566e-011 -4.21819e-011 1   
     length 1.2376   
     axis -90 7.62852e-016 20   XYZ
    dof rx
    limits (-90.0 20.0)
  end
  begin
     id 6 
     name rhipjoint
     direction -0.644473 -0.655875 0.393043   
     length 2.43293  
     axis 0 0 0  XYZ 
  end
  begin
     id 7 
     name rfemur
     direction -0.34202 -0.939693 0   
     length 6.7025   
     axis 0 0 -20   XYZ
    dof rx ry rz
    limits (-160.0 20.0)
           (-70.0 70.0)
           (-70.0 60.0)
  end
  begin
     id 8 
     name rtibia
     direction -0.34202 -0.939693 0   
     length 7.80547   
     axis 0 0 -20   XYZ
    dof rx
    limits (-10.0 170.0)
 end
 begin
     id 9 
     name rfoot
     direction -0.0756734 -0.207911 0.975216   
     length 2.40315  
     axis -90 -7.62852e-016 -20   XYZ
    dof rx rz
    limits (-45.0 90.0)
           (-20.0 70.0)
  end
  begin
     id 10 
     name rtoes
     direction -1.5353e-011 -4.21879e-011 1   
     length 1.20477   
     axis -90 -7.62852e-016 -20   XYZ
    dof rx
    limits (-90.0 20.0)
  end
  begin
     id 11 
     name lowerback
     direction 0.0160353 0.987463 -0.157037   
     length 2.18572   
     axis 0 0 0   XYZ
    dof rx ry rz
    limits (-20.0 45.0)
           (-30.0 30.0)
           (-30.0 30.0)
  end
  begin
     id 12 
     name upperback
     direction -0.00499661 0.999756 0.0215076   
     length 2.18016   
     axis 0 0 0   XYZ
    dof rx ry rz
    limits (-20.0 45.0)
           (-30.0 30.0)
           (-30.0 30.0)
  end
  begin
     id 13 
     name thorax
     direction -0.00921346 0.995333 0.0960619   
     length 2.24923   
     axis 0 0 0   XYZ
    dof rx ry rz
    limits (-20.0 45.0)
           (-30.0 30.0)
           (-30.0 30.0)
  end
  begin
     id 14 
     name lowerneck
     direction 0.0274184 0.991181 0.12965   
     length 1.70911   
     axis 0 0 0   XYZ
    dof rx ry rz
    limits (-20.0 45.0)
           (-30.0 30.0)
           (-30.0 30.0)
  end
  begin
     id 15 
     name upperneck
     direction 0.0015627 0.999959 -0.00893559   
     length 1.69312   
     axis 0 0 0   XYZ
    dof rx ry rz
    limits (-20.0 45.0)
           (-30.0 30.0)
           (-30.0 30.0)
  end
  begin
     id 16
     name head
     direction -0.00230242 0.999856 -0.0168327  
     length 1.80241  
     axis 0 0 0   XYZ
    dof rx ry rz
    limits (-20.0 45.0)
           (-30.0 30.0)
           (-30.0 30.0)
  end
  begin
     id 17 
     name lclavicle
     direction 0.955523 0.290741 -0.0494489  
     length 3.84275  
     axis 0 0 0   XYZ
    dof ry rz
    limits (-20.0 10.0)
           (0.0 20.0)
  end
  begin
     id 18 
     name lhumerus
     direction 1 -4.48967e-011 -3.18382e-028   
     length 5.17714   
     axis 180 -30 -90   XYZ
    dof rx ry rz
    limits (-60.0 90.0)
           (-90.0 90.0)
           (-90.0 90.0)
  end
  begin
     id 19
     name lradius
     direction 1 -4.48968e-011 -2.22911e-027   
     length 3.43679   
     axis 180 -30 -90   XYZ
    dof rx
    limits (-10.0 170.0)
  end
  begin
     id 20
     name lwrist
     direction 1 -4.48951e-011 -6.32245e-027   
     length 1.7184   
     axis 3.57107e-015 90 90   XYZ
    dof ry
    limits (-180.0 0.0)
 end
  begin
     id 21 
     name lhand
     direction 1 -4.48924e-011 -1.26431e-026   
     length 0.573117   
     axis 8.06912e-015 90 90   XYZ
    dof rx rz
    limits (-90.0 90.0)
           (-45.0 45.0)
  end
  begin
     id 22 
     name lfingers
     direction 1 -4.49001e-011 -2.52965e-026   
     length 0.462062   
     axis 1.61381e-014 90 90   XYZ
    dof rx
    limits (0.0 90.0)
  end
  begin
     id 23
     name lthumb
     direction 0.707107 -6.35008e-011 0.707107   
     length 0.663431   
     axis -90 45 -1.62303e-014   XYZ
    dof rx rz
    limits (-45.0 45.0)
           (-45.0 45.0)
  end
  begin
     id 24 
     name rclavicle
     direction -0.963917 0.256881 -0.0698287   
     length 3.73057  
     axis 0 0 0   XYZ 
    dof ry rz
    limits (-10.0 20.0)
           (-20.0 0.0)
  end
  begin
     id 25 
     name rhumerus
     direction -1 -4.48962e-011 -2.73982e-027  
     length 5.23908   
     axis 180 30 90   XYZ
    dof rx ry rz
    limits (-90.0 60.0)
           (-90.0 90.0)
           (-90.0 90.0)
  end
  begin
     id 26 
     name rradius
     direction -1 -4.48968e-011 -4.33218e-027   
     length 3.46485   
     axis 180 30 90   XYZ
    dof rx
    limits (-10.0 170.0)
  end
  begin
     id 27 
     name rwrist
     direction -1 -4.48989e-011 -6.32372e-027   
     length 1.73243   
     axis 3.57107e-015 -90 -90   XYZ
    dof ry
    limits (-180.0 0.0)
  end
  begin
     id 28
     name rhand
     direction -1 -4.48948e-011 -1.26448e-026   
     length 0.608752   
     axis 8.06912e-015 -90 -90   XYZ
    dof rx rz
    limits (-90.0 90.0)
           (-45.0 45.0)
  end
  begin
     id 29
     name rfingers
     direction -1 -4.48962e-011 -2.52913e-026   
     length 0.490792   
     axis 1.61381e-014 -90 -90   XYZ
    dof rx
    limits (0.0 90.0)
  end
  begin
     id 30
     name rthumb
     direction -0.707107 -6.34878e-011 0.707107   
     length 0.704682   
     axis -90 -45 1.62303e-014   XYZ
    dof rx rz
    limits (-45.0 45.0)
           (-45.0 45.0)
  end
:hierarchy
  begin
    root lhipjoint rhipjoint lowerback
    lhipjoint lfemur
    lfemur ltibia
    ltibia lfoot
    lfoot ltoes
    rhipjoint rfemur
    rfemur rtibia
    rtibia rfoot
    rfoot rtoes
    lowerback upperback
    upperback thorax
    thorax lowerneck lclavicle rclavicle
    lowerneck upperneck
    upperneck head
    lclavicle lhumerus
    lhumerus lradius
    lradius lwrist
    lwrist lhand lthumb
    lhand lfingers
    rclavicle rhumerus
    rhumerus rradius
    rradius rwrist
    rwrist rhand rthumb
    rhand rfingers
  end

#!OML:ASF G:\JayActor3\Patient Classification 1\Patient 1\Session 6\male.ASF
:FULLY-SPECIFIED
:DEGREES
308
root 47.0348 15.3658 15.2354 181.689 -32.9903 -183.736
lowerback 16.7489 -1.14656 -2.93399
upperback 7.75604 -2.9143 -1.39755
thorax -1.06132 -1.8874 0.696267
lowerneck 3.8804 2.90004 7.2304
upperneck 15.4145 3.7149 -6.16963
head 4.22368 1.59017 -3.03254
rclavicle 2.41523e-014 -7.15625e-014
rhumerus -34.9212 10.9923 -87.7899
rradius 128.487
rwrist 14.5059
rhand 22.6258 -18.1058
rfingers 7.12502
rthumb 46.9729 -40.7839
lclavicle 2.41523e-014 -7.15625e-014
lhumerus -40.5541 -5.26694 86.4767
lradius 133.278
lwrist 5.64584
lhand 9.09788 39.4116
lfingers 7.12502
lthumb 34.2702 66.135
rfemur -46.6734 -0.628889 14.1881
rtibia 36.9641
rfoot -28.0377 -15.4485
rtoes -17.9597
lfemur 7.43322 17.3528 -24.643
ltibia 24.4114
lfoot -24.956 15.4254
ltoes -14.9242
309
root 46.9934 15.3806 15.1382 181.73 -33.1137 -183.697
lowerback 16.587 -1.23801 -2.81132
upperback 7.69055 -2.99129 -1.33584
thorax -1.04639 -1.91586 0.700106
lowerneck 3.7571 2.90486 7.24155
upperneck 15.4141 3.72743 -6.21734
head 4.24525 1.59556 -3.04719
rclavicle 1.13307e-014 -1.27222e-014
rhumerus -34.941 10.9607 -87.7764
rradius 128.509
rwrist 14.425
rhand 22.5414 -18.1237
rfingers 7.12502
rthumb 46.8948 -40.8361
lclavicle 1.13307e-014 -1.27222e-014
lhumerus -40.5595 -5.29251 86.4706
lradius 133.318
lwrist 5.69775
lhand 9.07531 39.4009
lfingers 7.12502
lthumb 34.2488 66.1291
rfemur -45.8395 0.0113763 13.9025
rtibia 35.7519
rfoot -28.2144 -15.6809
rtoes -17.635
lfemur 8.29309 17.4377 -24.3103
ltibia 23.4859
lfoot -24.4946 15.0722
ltoes -15.4741
310
root 46.9528 15.3929 15.04 181.785 -33.2345 -183.666
lowerback 16.4339 -1.32848 -2.69641
upperback 7.62102 -3.06928 -1.27941
thorax -1.04021 -1.94482 0.703172
lowerneck 3.63448 2.90943 7.24876
upperneck 15.4171 3.73948 -6.26673
head 4.26769 1.6002 -3.06177
rclavicle -1.09332e-015 1.19271e-014
rhumerus -34.9639 10.9392 -87.7685
rradius 128.526
rwrist 14.3666
rhand 22.4576 -18.1409
rfingers 7.12502
rthumb 46.8172 -40.8872
lclavicle -1.09332e-015 1.19271e-014
lhumerus -40.5625 -5.31815 86.4504
lradius 133.358
lwrist 5.75727
lhand 9.05636 39.3938
lfingers 7.12502
lthumb 34.2308 66.126
rfemur -45.0829 0.614826 13.6543
rtibia 34.7182
rfoot -28.4064 -15.8625
rtoes -17.2802
lfemur 9.09651 17.5242 -23.9805
ltibia 22.6466
lfoot -24.054 14.7236
ltoes -16.0507
311
root 46.9136 15.403 14.9408 181.86 -33.3536 -183.625
lowerback 16.2777 -1.42059 -2.58044
upperback 7.54457 -3.14876 -1.22176
thorax -1.03959 -1.97403 0.706969
lowerneck 3.51046 2.91525 7.24995
upperneck 15.4215 3.75358 -6.32082
head 4.29088 1.60516 -3.07674
rclavicle -4.34344e-014 1.98785e-014
rhumerus -34.9822 10.9293 -87.7672
rradius 128.535
rwrist 14.3384
rhand 22.3782 -18.1478
rfingers 7.12502
rthumb 46.7437 -40.9261
lclavicle -4.34344e-014 1.98785e-014
lhumerus -40.5692 -5.33888 86.4235
lradius 133.402
lwrist 5.80131
lhand 9.04636 39.3746
lfingers 7.12502
lthumb 34.2213 66.109
rfemur -44.4174 1.17221 13.4682
rtibia 33.8545
rfoot -28.5857 -15.9975
rtoes -16.8629
lfemur 9.81434 17.6041 -23.6425
ltibia 21.9094
lfoot -23.6376 14.3783
ltoes -16.6384
312
root 46.8755 15.4109 14.8407 181.957 -33.4677 -183.583
lowerback 16.1184 -1.51078 -2.46292
upperback 7.4612 -3.22532 -1.16901
thorax -1.04515 -2.00125 0.70415
lowerneck 3.37755 2.91981 7.26591
upperneck 15.4332 3.76731 -6.3905
head 4.31825 1.60977 -3.09901
rclavicle 2.8128e-014 -5.96354e-015
rhumerus -35.0027 10.9209 -87.7771
rradius 128.539
rwrist 14.3472
rhand 22.3092 -18.1405
rfingers 7.12502
rthumb 46.6799 -40.9464
lclavicle 2.8128e-014 -5.96354e-015
lhumerus -40.5797 -5.369 86.392
lradius 133.447
lwrist 5.83449
lhand 9.03983 39.35
lfingers 7.12502
lthumb 34.2151 66.0857
rfemur -43.8365 1.66999 13.3413
rtibia 33.1504
rfoot -28.7174 -16.0887
rtoes -16.4155
lfemur 10.4495 17.6729 -23.3083
ltibia 21.2747
lfoot -23.2494 14.0441
ltoes -17.2424
313
root 46.8383 15.4166 14.7396 182.071 -33.5816 -183.536
lowerback 15.958 -1.5985 -2.33773
upperback 7.37517 -3.29795 -1.12083
thorax -1.05372 -2.0262 0.691414
lowerneck 3.23754 2.92098 7.29849
upperneck 15.4466 3.77783 -6.47311
head 4.3476 1.61306 -3.12812
rclavicle -1.25234e-013 7.23576e-014
rhumerus -35.0191 10.9037 -87.7951
rradius 128.538
rwrist 14.3829
rhand 22.2419 -18.1214
rfingers 7.12502
rthumb 46.6175 -40.9543
lclavicle -1.25234e-013 7.23576e-014
lhumerus -40.5903 -5.41107 86.352
lradius 133.492
lwrist 5.86445
lhand 9.04229 39.3376
lfingers 7.12502
lthumb 34.2174 66.0729
rfemur -43.3288 2.10049 13.2798
rtibia 32.5931
rfoot -28.7725 -16.168
rtoes -16.0236
lfemur 11.0168 17.7295 -22.9695
ltibia 20.7252
lfoot -22.8902 13.7078
ltoes -17.8317
314
root 46.8019 15.4203 14.6376 182.199 -33.6935 -183.495
lowerback 15.8003 -1.68332 -2.21632
upperback 7.29135 -3.36869 -1.07805
thorax -1.06151 -2.05064 0.674673
lowerneck 3.09107 2.9209 7.33592
upperneck 15.4532 3.78813 -6.56521
head 4.37619 1.61628 -3.16089
rclavicle -5.02925e-014 -7.55382e-015
rhumerus -35.0271 10.8843 -87.8164
rradius 128.533
rwrist 14.4407
rhand 22.1731 -18.0774
rfingers 7.12502
rthumb 46.5538 -40.9377
lclavicle -5.02925e-014 -7.55382e-015
lhumerus -40.6015 -5.45403 86.3107
lradius 133.54
lwrist 5.89312
lhand 9.06406 39.3293
lfingers 7.12502
lthumb 34.2381 66.0599
rfemur -42.8818 2.46254 13.2668
rtibia 32.1768
rfoot -28.775 -16.2022
rtoes -15.5861
lfemur 11.5485 17.7752 -22.6363
ltibia 20.2215
lfoot -22.5474 13.3729
ltoes -18.4173
315
root 46.7653 15.4219 14.5342 182.334 -33.7975 -183.48
lowerback 15.653 -1.76273 -2.11466
upperback 7.21442 -3.43771 -1.04227
thorax -1.06691 -2.07546 0.661469
lowerneck 2.94313 2.91971 7.37181
upperneck 15.4532 3.79835 -6.66705
head 4.40307 1.61903 -3.19641
rclavicle -6.54995e-014 4.57205e-015
rhumerus -35.0279 10.8642 -87.8376
rradius 128.528
rwrist 14.5022
rhand 22.1119 -18.0231
rfingers 7.12502
rthumb 46.4972 -40.9077
lclavicle -6.54995e-014 4.57205e-015
lhumerus -40.6081 -5.49044 86.2687
lradius 133.585
lwrist 5.9346
lhand 9.08636 39.3343
lfingers 7.12502
lthumb 34.2593 66.0601
rfemur -42.4675 2.75513 13.2877
rtibia 31.8803
rfoot -28.7027 -16.2219
rtoes -15.2041
lfemur 12.0822 17.8097 -22.3215
ltibia 19.7373
lfoot -22.2203 13.0447
ltoes -18.9815
316
root 46.7284 15.4212 14.4292 182.466 -33.8958 -183.49
lowerback 15.5247 -1.83754 -2.03231
upperback 7.14814 -3.50679 -1.01306
thorax -1.07041 -2.10185 0.652622
lowerneck 2.80574 2.91878 7.39556
upperneck 15.4344 3.81042 -6.77241
head 4.42242 1.62234 -3.23094
rclavicle 3.17062e-014 -6.55989e-015
rhumerus -35.0234 10.8429 -87.8577
rradius 128.522
rwrist 14.5627
rhand 22.0575 -17.9751
rfingers 7.12502
rthumb 46.4467 -40.8813
lclavicle 3.17062e-014 -6.55989e-015
lhumerus -40.6121 -5.51525 86.2262
lradius 133.626
lwrist 5.98562
lhand 9.12091 39.3472
lfingers 7.12502
lthumb 34.2921 66.0656
rfemur -42.0638 2.9918 13.3295
rtibia 31.6871
rfoot -28.5674 -16.2259
rtoes -14.8215
lfemur 12.6526 17.8354 -22.0185
ltibia 19.24
lfoot -21.9052 12.708
ltoes -19.5396
